<?xml version="1.0" encoding="utf-8"?><svg xmlns="http://www.w3.org/2000/svg" xmlns:xlink="http://www.w3.org/1999/xlink" width="1366" height="592" preserveAspectRatio="xMidYMid" viewBox="0 0 1366 592" style="z-index:1;margin-right:-2px;display:block;background-repeat-y:initial;background-repeat-x:initial;background-color:rgb(255, 255, 255);animation-play-state:paused" ><g transform="translate(683,296) scale(1,1) translate(-683,-296)" style="transform:matrix(1, 0, 0, 1, 0, 0);animation-play-state:paused" ><linearGradient id="lg-0.9638688332634937" x1="0" x2="1" y1="0" y2="0" style="animation-play-state:paused" ><stop stop-color="#ff00ff" offset="0" style="animation-play-state:paused" ></stop>

  
<stop stop-color="#00ffff" offset="1" style="animation-play-state:paused" ></stop></linearGradient>
<path d="M 0 0 M 0 524.465 Q 136.6 498.442 273.2 497.795 T 546.4 511.975 T 819.6 482.015 T 1092.8 475.545 T 1366 451.861 L 1366 167.997 Q 1229.4 117.773 1092.8 112.865 T 819.6 139.652 T 546.4 112.672 T 273.2 75.7692 T 0 92.922 Z" fill="url(#lg-0.9638688332634937)" opacity="0.4" style="opacity:0.4;animation-play-state:paused" ></path>
<path d="M 0 0 M 0 518.062 Q 136.6 493.148 273.2 485.402 T 546.4 466.758 T 819.6 448.538 T 1092.8 431.804 T 1366 443.302 L 1366 178.608 Q 1229.4 159.306 1092.8 152.599 T 819.6 144.928 T 546.4 94.9092 T 273.2 111.019 T 0 75.9036 Z" fill="url(#lg-0.9638688332634937)" opacity="0.4" style="opacity:0.4;animation-play-state:paused" ></path>
<path d="M 0 0 M 0 505.054 Q 136.6 537.025 273.2 532.454 T 546.4 476.921 T 819.6 465.088 T 1092.8 433.483 T 1366 420.334 L 1366 170.855 Q 1229.4 159.736 1092.8 154.1 T 819.6 138.726 T 546.4 113.975 T 273.2 93.7616 T 0 46.6859 Z" fill="url(#lg-0.9638688332634937)" opacity="0.4" style="opacity:0.4;animation-play-state:paused" ></path>
<path d="M 0 0 M 0 539.212 Q 136.6 545.12 273.2 536.973 T 546.4 490.983 T 819.6 443.776 T 1092.8 437.576 T 1366 420.963 L 1366 175.641 Q 1229.4 174.83 1092.8 167.175 T 819.6 145.695 T 546.4 123.366 T 273.2 67.9605 T 0 28.7997 Z" fill="url(#lg-0.9638688332634937)" opacity="0.4" style="opacity:0.4;animation-play-state:paused" ></path></g></svg>